#!OML:ASF I:\Actors\actors\Patient Classification 1\Patient 1\Session 1\Subject1.ASF
:FULLY-SPECIFIED
:DEGREES
504
root -0.393933 17.5733 8.57032 11.4703 7.10512 -8.92395
lowerback 1.3029 0.332948 5.67492
upperback -5.13163 0.866356 2.97121
thorax -6.04658 0.23992 -0.135287
lowerneck 4.72377 -10.5251 -5.86369
upperneck 31.0148 -16.2006 5.72145
head 10.1426 -7.69748 1.79668
rclavicle 2.58855e-014 -1.46107e-014
rhumerus 15.2931 -25.5339 -59.4115
rradius 128.216
rwrist 9.51251
rhand -12.8076 -54.1668
rfingers 7.12502
rthumb 13.2787 -443.724
lclavicle 2.58855e-014 -1.46107e-014
lhumerus 24.0292 19.7181 72.4724
lradius 116.329
lwrist -11.8447
lhand -35.482 -24.7773
lfingers 7.12502
lthumb -8.60995 5.02714
rfemur -8.11877 21.6637 24.9699
rtibia 6.71127
rfoot -14.846 -24.9864
rtoes 2.43403
lfemur -3.18097 -45.1371 -3.71218
ltibia -3.3072
lfoot -20.091 52.2352
ltoes 8.04513
505
root -0.38657 17.5887 8.56802 12.1207 7.20115 -8.93007
lowerback 1.49275 0.553307 5.94584
upperback -4.74839 1.16169 2.8815
thorax -5.73046 0.383053 -0.401834
lowerneck 3.15855 -10.3233 -10.3673
upperneck 33.5762 -17.1857 9.93654
head 12.4667 -8.13452 3.7964
rclavicle 4.24126e-015 -6.77607e-014
rhumerus 18.7447 -31.3984 -59.8187
rradius 133.119
rwrist 11.3
rhand -13.6375 -55.2142
rfingers 7.12502
rthumb 12.4787 -444.822
lclavicle 4.24126e-015 -6.77607e-014
lhumerus 28.1808 23.5213 75.5732
lradius 122.701
lwrist -11.2886
lhand -34.624 -26.4274
lfingers 7.12502
lthumb -7.78185 3.40939
rfemur -8.77652 21.9416 24.6642
rtibia 6.47616
rfoot -14.7969 -25.3245
rtoes 2.6474
lfemur -4.13904 -45.9601 -2.93839
ltibia -3.38222
lfoot -20.7722 53.1391
ltoes 7.99698
506
root -0.377263 17.5983 8.5651 12.6626 7.24318 -8.81622
lowerback 1.58214 0.300282 5.52685
upperback -4.77928 0.835882 3.32093
thorax -5.84085 0.249609 0.309176
lowerneck 4.14026 -9.92132 -10.7375
upperneck 32.9538 -16.4912 9.75624
head 11.9284 -7.9352 3.93269
rclavicle 2.28416e-014 -1.83876e-014
rhumerus 22.3928 -34.6583 -60.9376
rradius 137.043
rwrist 14.0517
rhand -16.992 -53.0764
rfingers 7.12502
rthumb 9.24307 -442.854
lclavicle 2.28416e-014 -1.83876e-014
lhumerus 30.6123 27.8529 78.731
lradius 128.523
lwrist -12.9486
lhand -39.3703 -24.5107
lfingers 7.12502
lthumb -12.3607 5.10394
rfemur -9.33782 22.0368 24.2482
rtibia 6.31592
rfoot -14.6986 -25.5042
rtoes 2.56311
lfemur -4.93635 -46.7537 -2.44045
ltibia -3.40353
lfoot -21.7649 53.8833
ltoes 8.66551
507
root -0.366486 17.6 8.56061 13.0402 7.22498 -8.70084
lowerback 1.7333 0.160119 5.32493
upperback -4.73271 0.658537 3.52301
thorax -5.88816 0.175882 0.64322
lowerneck 4.56017 -9.6356 -11.1689
upperneck 32.8596 -16.1386 9.99359
head 11.8244 -7.82308 4.16236
rclavicle -6.60959e-015 -2.77305e-014
rhumerus 25.9544 -37.609 -63.0407
rradius 140.524
rwrist 17.0499
rhand -18.9021 -53.4222
rfingers 7.12502
rthumb 7.39963 -443.273
lclavicle -6.60959e-015 -2.77305e-014
lhumerus 33.1226 30.4687 82.1294
lradius 133.636
lwrist -13.3435
lhand -38.9107 -24.8227
lfingers 7.12502
lthumb -11.9176 4.81809
rfemur -9.72247 22.0415 23.8926
rtibia 6.16867
rfoot -14.5247 -25.5649
rtoes 2.50571
lfemur -5.5105 -47.2842 -2.15684
ltibia -3.35584
lfoot -22.5198 54.3483
ltoes 9.46605
508
root -0.358618 17.5963 8.5559 13.2102 7.1382 -8.7022
lowerback 1.93833 0.197031 5.47818
upperback -4.65725 0.727775 3.52402
thorax -5.92371 0.203181 0.553339
lowerneck 4.88123 -9.51859 -11.2706
upperneck 32.6196 -15.9917 10.1405
head 11.6653 -7.77051 4.26947
rclavicle -1.43746e-014 4.33351e-014
rhumerus 28.2577 -39.9626 -65.4863
rradius 143.344
rwrist 21.1879
rhand -21.3486 -54.8655
rfingers 7.12502
rthumb 5.03771 -444.786
lclavicle -1.43746e-014 4.33351e-014
lhumerus 34.616 30.9179 85.0067
lradius 138.094
lwrist -12.7074
lhand -39.3174 -25.3701
lfingers 7.12502
lthumb -12.3097 4.24755
rfemur -9.8838 22.1542 23.7708
rtibia 6.0525
rfoot -14.4211 -25.6148
rtoes 2.58807
lfemur -5.74304 -47.5413 -2.00208
ltibia -3.31648
lfoot -22.9593 54.6278
ltoes 9.94424
509
root -0.35476 17.5918 8.55097 13.1821 6.94649 -8.79058
lowerback 2.23136 0.262754 5.63429
upperback -4.62211 0.848199 3.55331
thorax -6.05147 0.25426 0.487716
lowerneck 4.87146 -9.46455 -11.389
upperneck 32.7548 -15.924 10.1551
head 11.727 -7.74861 4.30449
rclavicle 1.57164e-014 -6.65929e-014
rhumerus 27.8663 -40.1293 -66.8424
rradius 145.243
rwrist 25.2559
rhand -24.8112 -56.2027
rfingers 7.12502
rthumb 1.69391 -446.176
lclavicle 1.57164e-014 -6.65929e-014
lhumerus 33.8508 29.7629 86.4987
lradius 141.334
lwrist -13.1229
lhand -42.2928 -26.9536
lfingers 7.12502
lthumb -15.1772 2.46983
rfemur -9.82814 22.4058 23.8461
rtibia 5.97678
rfoot -14.3893 -25.6472
rtoes 3.07842
lfemur -5.56386 -47.6306 -2.03935
ltibia -3.35868
lfoot -23.4179 54.8084
ltoes 10.4719
510
root -0.352543 17.588 8.54748 13.0543 6.71144 -8.94084
lowerback 2.52046 0.328516 5.83472
upperback -4.64564 0.973301 3.53801
thorax -6.23778 0.30222 0.350375
lowerneck 4.7521 -9.35023 -11.329
upperneck 32.8797 -15.7903 10.2332
head 11.783 -7.66792 4.33749
rclavicle 2.32205e-014 3.53837e-014
rhumerus 26.3721 -38.1009 -67.5284
rradius 146.432
rwrist 28.4604
rhand -28.7027 -58.2009
rfingers 7.12502
rthumb -2.06458 -448.171
lclavicle 2.32205e-014 3.53837e-014
lhumerus 30.9068 27.0885 86.3133
lradius 142.831
lwrist -13.9267
lhand -43.5384 -29.3473
lfingers 7.12502
lthumb -16.3768 -0.0186808
rfemur -9.65204 22.6992 24.0509
rtibia 5.89633
rfoot -14.3095 -25.685
rtoes 3.47605
lfemur -5.14443 -47.6657 -2.16793
ltibia -3.48308
lfoot -23.7825 54.9834
ltoes 10.874
511
root -0.35236 17.5852 8.54826 12.9694 6.55406 -9.07459
lowerback 2.57176 0.359915 5.97685
upperback -4.69836 1.02832 3.48265
thorax -6.31948 0.318654 0.209666
lowerneck 4.68608 -9.23057 -11.1932
upperneck 32.6557 -15.6996 10.5758
head 11.7056 -7.58378 4.45166
rclavicle -7.88927e-015 1.41137e-014
rhumerus 22.5151 -34.2998 -66.9718
rradius 145.72
rwrist 30.4078
rhand -32.9012 -59.9725
rfingers 7.12502
rthumb -6.1188 -449.864
lclavicle -7.88927e-015 1.41137e-014
lhumerus 26.6499 23.6628 84.9609
lradius 141.82
lwrist -16.2142
lhand -43.4653 -30.6486
lfingers 7.12502
lthumb -16.3064 -1.31421
rfemur -9.51396 22.9503 24.245
rtibia 5.82275
rfoot -14.2255 -25.7786
rtoes 3.56964
lfemur -4.8207 -47.7577 -2.22545
ltibia -3.59624
lfoot -24.078 55.1648
ltoes 11.0913
512
root -0.354273 17.5832 8.55127 12.9138 6.50684 -9.11169
lowerback 2.23148 0.327751 5.82132
upperback -4.6155 0.941924 3.51122
thorax -6.03943 0.29092 0.332994
lowerneck 4.28323 -9.12104 -11.067
upperneck 32.3756 -15.5941 10.9194
head 11.6677 -7.48051 4.54876
rclavicle -9.91439e-015 -3.55825e-014
rhumerus 18.2871 -29.8978 -66.5287
rradius 143.194
rwrist 30.8476
rhand -34.3481 -60.3629
rfingers 7.12502
rthumb -7.51555 -629.791
lclavicle -9.91439e-015 -3.55825e-014
lhumerus 21.9963 19.8428 83.4542
lradius 138.63
lwrist -17.9692
lhand -43.3826 -29.8636
lfingers 7.12502
lthumb -16.2267 -0.522696
rfemur -9.39746 23.0339 24.3389
rtibia 5.76857
rfoot -14.1585 -25.833
rtoes 3.67819
lfemur -4.6367 -47.8162 -2.30659
ltibia -3.62009
lfoot -24.3525 55.1923
ltoes 11.2191
513
root -0.356916 17.5798 8.55272 12.8172 6.50755 -9.10124
lowerback 1.54706 0.193945 5.44877
upperback -4.31922 0.670586 3.61294
thorax -5.34356 0.192058 0.662479
lowerneck 3.20185 -9.07652 -10.7756
upperneck 32.2806 -15.451 10.8567
head 11.7793 -7.34519 4.4324
rclavicle -7.64079e-015 3.27995e-014
rhumerus 14.5855 -25.1623 -66.7042
rradius 137.913
rwrist 32.2937
rhand -34.4999 -58.5587
rfingers 7.12502
rthumb -7.66212 -808.4
lclavicle -7.64079e-015 3.27995e-014
lhumerus 17.732 15.3854 81.935
lradius 132.913
lwrist -18.29
lhand -42.2499 -28.4769
lfingers 7.12502
lthumb -15.1359 0.949583
rfemur -9.26769 22.9756 24.3933
rtibia 5.7525
rfoot -14.1077 -25.8021
rtoes 3.66839
lfemur -4.50817 -47.5635 -2.42336
ltibia -3.60544
lfoot -24.086 54.9411
ltoes 11.0439
514
root -0.360304 17.5722 8.55254 12.6815 6.45633 -9.123
lowerback 1.70832 0.234136 5.65239
upperback -4.68184 0.755079 3.30091
thorax -5.81201 0.204245 0.222636
lowerneck 2.71145 -9.15264 -10.1942
upperneck 32.4492 -15.5817 10.7817
head 11.9015 -7.32416 4.26758
rclavicle 1.70209e-015 5.17337e-014
rhumerus 10.0582 -21.517 -67.0721
rradius 131.303
rwrist 33.6676
rhand -31.5727 -54.8611
rfingers 7.12502
rthumb -4.83618 -804.786
lclavicle 1.70209e-015 5.17337e-014
lhumerus 13.8458 10.4114 80.129
lradius 125.388
lwrist -14.6373
lhand -40.8602 -25.5365
lfingers 7.12502
lthumb -13.7969 3.98598
rfemur -9.1811 22.8687 24.4867
rtibia 5.85884
rfoot -14.121 -25.6733
rtoes 3.56624
lfemur -4.40139 -46.9389 -2.50355
ltibia -3.57286
lfoot -23.1825 54.4979
ltoes 10.3951
